<?xml version="1.0" encoding="UTF-8" standalone="no"?>
<!-- Created with Inkscape (http://www.inkscape.org/) -->

<svg
   xmlns:dc="http://purl.org/dc/elements/1.1/"
   xmlns:cc="http://creativecommons.org/ns#"
   xmlns:rdf="http://www.w3.org/1999/02/22-rdf-syntax-ns#"
   xmlns:svg="http://www.w3.org/2000/svg"
   xmlns="http://www.w3.org/2000/svg"
   xmlns:sodipodi="http://sodipodi.sourceforge.net/DTD/sodipodi-0.dtd"
   xmlns:inkscape="http://www.inkscape.org/namespaces/inkscape"
   width="744.09003"
   height="452.09"
   id="svg4125"
   version="1.1"
   inkscape:version="0.48.3.1 r9886"
   sodipodi:docname="ninja_code.svg"
   inkscape:export-filename="/home/wilson/PycharmProjects/ninjacoding_private/static/app/assets/img/ninja_code.png"
   inkscape:export-xdpi="90"
   inkscape:export-ydpi="90">
  <defs
     id="defs4127">
    <clipPath
       clipPathUnits="userSpaceOnUse"
       id="clipPath276">
      <path
         inkscape:connector-curvature="0"
         d="m 0,807.87 581.1,0 L 581.1,0 0,0 0,807.87 z"
         id="path278" />
    </clipPath>
  </defs>
  <sodipodi:namedview
     id="base"
     pagecolor="#ffffff"
     bordercolor="#666666"
     borderopacity="1.0"
     inkscape:pageopacity="0.0"
     inkscape:pageshadow="2"
     inkscape:zoom="0.7"
     inkscape:cx="255.32343"
     inkscape:cy="155.77278"
     inkscape:document-units="px"
     inkscape:current-layer="g272"
     showgrid="false"
     inkscape:window-width="1215"
     inkscape:window-height="776"
     inkscape:window-x="65"
     inkscape:window-y="24"
     inkscape:window-maximized="1" />
  <metadata
     id="metadata4130">
    <rdf:RDF>
      <cc:Work
         rdf:about="">
        <dc:format>image/svg+xml</dc:format>
        <dc:type
           rdf:resource="http://purl.org/dc/dcmitype/StillImage" />
        <dc:title></dc:title>
      </cc:Work>
    </rdf:RDF>
  </metadata>
  <g
     inkscape:label="Capa 1"
     inkscape:groupmode="layer"
     id="layer1"
     transform="translate(0,-600.27917)">
    <g
       transform="matrix(5.9116759,0,0,-5.1188222,-1410.4405,3499.8084)"
       id="g272">
      <g
         id="g274"
         clip-path="url(#clipPath276)"
         transform="translate(-2.0504897,-95.106654)"
         inkscape:export-filename="/home/wilson/Imágenes/codeame/ninja_code_2.png"
         inkscape:export-xdpi="90"
         inkscape:export-ydpi="90">
        <g
           id="g280"
           transform="translate(288.3525,620.4023)">
          <path
             inkscape:connector-curvature="0"
             d="m 0,0 c 0,0 5.083,5.379 13.211,3.174 8.127,-2.204 15.12,-9.258 14.843,-11.11 -0.28,-1.851 -2.395,-0.176 -3.762,0.97 -1.367,1.147 -13.564,6.79 -11.081,2.205 2.483,-4.585 6.761,-5.847 6.761,-5.847 0,0 14.458,-5.362 16.179,-13.111 0.536,-2.41 -0.5,-0.999 -7.672,2.469 -3.39,1.64 -25.158,7.818 -23.982,-1 0,0 0.588,-2.998 -2.293,-0.558 -2.88,2.44 -3.938,9.336 3.469,11.237 C 3.322,-8.729 -1.146,-3.674 0,0"
             style="fill:#000000;fill-opacity:1;fill-rule:nonzero;stroke:none"
             id="path282" />
        </g>
        <g
           id="g284"
           transform="translate(287.6909,615.3325)">
          <path
             inkscape:connector-curvature="0"
             d="M 0,0 C 0,0 0.706,-2.16 1.896,-3.218 0.044,-4.673 -1.19,-5.467 -2.645,-5.247 -4.1,-5.026 -2.38,-2.778 -1.984,-2.249 -1.587,-1.72 0,0 0,0"
             style="fill:#000000;fill-opacity:1;fill-rule:nonzero;stroke:none"
             id="path286" />
        </g>
        <g
           id="g288"
           transform="translate(289.0874,631.4976)">
          <path
             inkscape:connector-curvature="0"
             d="m 0,0 c -0.22,2.513 8.508,3.307 12.698,2.777 0,0 1.205,-2.524 0.351,-4.276 C 10.405,-2.292 0.221,-2.513 0,0 m 4.854,7.228 c -5.23,0 -9.47,-3.123 -9.47,-6.975 0,-3.852 4.24,-6.974 9.47,-6.974 5.229,0 9.469,3.122 9.469,6.974 0,3.852 -4.24,6.975 -9.469,6.975"
             style="fill:#000000;fill-opacity:1;fill-rule:nonzero;stroke:none"
             id="path290" />
        </g>
        <g
           id="g292"
           transform="translate(284.1646,635.9062)">
          <path
             inkscape:connector-curvature="0"
             d="m 0,0 c 0,0 1.323,-1.411 0,-2.072 -1.323,-0.661 -2.292,0 -2.777,0.441 -0.486,0.441 -1.852,0.617 -2.425,-0.441 C -5.158,-0.338 -1.69,1.69 0,0"
             style="fill:#000000;fill-opacity:1;fill-rule:nonzero;stroke:none"
             id="path294" />
        </g>
        <g
           id="g296"
           transform="translate(283.3174,633.0664)">
          <path
             inkscape:connector-curvature="0"
             d="M 0,0 C 0,0 1.084,-0.252 0.663,-0.992 0.241,-1.731 -0.435,-1.725 -0.808,-1.669 -1.181,-1.613 -1.892,-1.965 -1.828,-2.655 -2.361,-1.811 -1.349,0.269 0,0"
             style="fill:#000000;fill-opacity:1;fill-rule:nonzero;stroke:none"
             id="path298" />
        </g>
      </g>
      <flowRoot
         xml:space="preserve"
         id="flowRoot4115"
         style="font-size:14px;font-style:normal;font-variant:normal;font-weight:normal;font-stretch:normal;line-height:125%;letter-spacing:0px;word-spacing:0px;fill:#000000;fill-opacity:1;stroke:none;font-family:Gaivota;-inkscape-font-specification:Gaivota"
         transform="matrix(0.16915677,0,0,-0.35436044,265.77473,580.98331)"><flowRegion
           id="flowRegion4117"><rect
             id="rect4119"
             width="667.77301"
             height="105.2561"
             x="-50.316109"
             y="220.64502"
             style="font-style:normal;font-variant:normal;font-weight:normal;font-stretch:normal;font-family:Gaivota;-inkscape-font-specification:Gaivota" /></flowRegion><flowPara
           id="flowPara4121"
           style="font-size:56px">Ninja <flowSpan
   style="font-size:56px;fill:#6e5baa;fill-opacity:1"
   id="flowSpan4123">coding</flowSpan></flowPara></flowRoot>      <flowRoot
         xml:space="preserve"
         id="flowRoot4266"
         style="font-size:32px;font-style:normal;font-variant:normal;font-weight:normal;font-stretch:normal;line-height:125%;letter-spacing:0px;word-spacing:0px;fill:#000000;fill-opacity:1;stroke:none;font-family:Canon;-inkscape-font-specification:Canon"
         transform="matrix(0.16915677,0,0,-0.19535744,238.58556,683.71361)"><flowRegion
           id="flowRegion4268"><rect
             id="rect4270"
             width="600.03064"
             height="151.52289"
             x="72.73098"
             y="617.99658"
             style="font-size:32px;font-style:normal;font-variant:normal;font-weight:normal;font-stretch:normal;font-family:Canon;-inkscape-font-specification:Canon" /></flowRegion><flowPara
           id="flowPara4272"
           style="font-size:72px" /></flowRoot>    </g>
  </g>
</svg>
